<?xml version="1.0" standalone="no"?>
<!DOCTYPE svg PUBLIC "-//W3C//DTD SVG 20010904//EN"
 "http://www.w3.org/TR/2001/REC-SVG-20010904/DTD/svg10.dtd">
<svg version="1.0" xmlns="http://www.w3.org/2000/svg"
 width="500.000000pt" height="500.000000pt" viewBox="0 0 500.000000 500.000000"
 preserveAspectRatio="xMidYMid meet">
<metadata>
Created by potrace 1.14, written by Peter Selinger 2001-2017
</metadata>
<g transform="translate(0.000000,500.000000) scale(0.100000,-0.100000)"
fill="#000000" stroke="none">
<path d="M3728 4208 c-16 -5 -28 -14 -28 -19 0 -5 -11 -27 -25 -49 -14 -22
-22 -40 -18 -40 5 0 3 -4 -2 -8 -11 -8 -65 -88 -65 -97 0 -2 -17 -33 -38 -67
-20 -35 -46 -80 -57 -100 -10 -21 -21 -35 -24 -32 -3 3 -6 46 -7 97 -1 122
-15 166 -67 220 -81 82 15 77 -1354 77 -1102 0 -1216 -1 -1255 -16 -58 -23
-105 -68 -134 -129 l-24 -50 0 -1516 c0 -1512 2 -1579 32 -1579 4 0 8 -6 8
-12 1 -17 35 -58 49 -58 6 0 11 -4 11 -9 0 -5 22 -18 50 -30 l49 -21 1233 2
1233 3 47 28 c53 32 85 71 109 132 14 36 15 120 15 670 l-1 630 27 55 c15 30
41 78 58 105 17 28 35 59 40 70 6 11 16 29 22 39 35 54 78 126 78 129 0 3 18
35 40 71 22 36 40 69 40 73 0 3 6 14 14 22 7 9 27 41 43 71 44 81 57 103 70
117 6 7 15 23 19 36 4 12 9 24 13 27 3 3 11 14 17 25 6 11 26 47 44 80 18 33
45 80 60 105 28 45 121 206 252 434 71 125 82 164 48 181 -11 6 -129 74 -262
151 -347 202 -328 193 -360 182z m-1668 -672 c0 -11 -19 -15 -25 -6 -3 5 1 10
9 10 9 0 16 -2 16 -4z m320 -11 c0 -5 5 -3 11 5 7 10 12 11 15 4 3 -7 14 -9
26 -6 16 4 19 2 13 -9 -8 -12 -6 -12 9 0 12 10 16 11 14 2 -3 -13 67 -42 78
-32 4 3 4 0 0 -7 -4 -7 -12 -9 -18 -6 -6 4 -8 2 -4 -4 3 -6 1 -12 -6 -15 -7
-2 -6 -3 2 -2 8 2 23 6 33 10 10 4 17 3 17 -5 0 -6 -5 -8 -12 -4 -8 5 -9 1 -4
-12 6 -15 5 -16 -5 -7 -9 10 -16 10 -26 1 -12 -10 -86 -15 -258 -17 -22 -1
-97 0 -166 0 -69 1 -131 -1 -137 -5 -6 -3 -13 -2 -17 4 -4 6 -12 7 -18 3 -7
-4 -6 1 2 10 10 13 17 14 26 7 10 -8 15 -8 20 0 4 7 18 10 31 7 20 -3 22 -2
13 10 -10 11 -8 12 6 7 14 -6 16 -4 10 7 -7 11 -5 11 10 -1 17 -14 18 -13 12
2 -4 13 -1 16 14 13 10 -2 19 0 19 5 0 14 -24 18 -44 8 -12 -7 -16 -7 -12 0 3
6 3 12 -1 15 -5 2 -3 2 4 1 6 -2 16 3 22 9 13 16 321 18 321 2z m230 -90 c0
-2 -9 -3 -19 -2 -11 0 -18 5 -15 9 4 6 34 0 34 -7z m-48 -358 c42 -8 98 -30
98 -39 0 -5 6 -8 13 -7 6 1 23 1 36 0 21 -1 22 -3 10 -18 -10 -11 -10 -14 -1
-9 6 4 12 5 12 2 0 -9 -43 -29 -70 -32 -20 -3 -720 -4 -1037 -2 -54 0 -62 2
-54 16 5 8 15 17 22 19 8 1 46 9 84 17 39 8 93 25 122 39 51 23 51 23 395 21
188 -1 355 -5 370 -7z m-1008 -92 c-4 -8 -11 -12 -16 -9 -6 4 -5 10 3 15 19
12 19 11 13 -6z"/>
<path d="M2134 3476 c1 -8 5 -18 8 -22 4 -3 5 1 4 10 -1 8 -5 18 -8 22 -4 3
-5 -1 -4 -10z"/>
<path d="M2495 3480 c-3 -5 -1 -10 4 -10 6 0 11 5 11 10 0 6 -2 10 -4 10 -3 0
-8 -4 -11 -10z"/>
</g>
</svg>
